<?xml version="1.0" standalone="no"?>
<!DOCTYPE svg PUBLIC "-//W3C//DTD SVG 20010904//EN"
 "http://www.w3.org/TR/2001/REC-SVG-20010904/DTD/svg10.dtd">
<svg version="1.0" xmlns="http://www.w3.org/2000/svg"
 width="300.000000pt" height="275.000000pt" viewBox="0 0 300.000000 275.000000"
 preserveAspectRatio="xMidYMid meet">
<metadata>
Created by potrace 1.10, written by Peter Selinger 2001-2011
</metadata>
<g transform="translate(0.000000,275.000000) scale(0.100000,-0.100000)"
fill="#000000" stroke="none">
<path d="M1619 2675 c-9 -75 -9 -75 10 -75 15 0 18 7 16 31 -2 28 -24 64 -26
44z"/>
<path d="M1710 2600 c0 -11 -4 -21 -10 -21 -5 -1 -14 -3 -20 -4 -5 -1 -13 -3
-17 -4 -5 -1 -1 -7 8 -14 9 -7 19 -19 22 -27 4 -9 5 -6 3 7 -2 13 0 26 5 29 5
3 9 -11 9 -30 l0 -36 -133 0 c-89 0 -137 4 -145 12 -16 16 -124 -4 -199 -37
-115 -51 -253 -173 -253 -224 0 -34 17 -66 43 -80 14 -7 30 -24 35 -36 6 -13
20 -26 31 -30 12 -3 34 -18 51 -33 71 -65 94 -82 107 -82 7 0 23 -11 35 -25
12 -14 29 -25 38 -25 9 0 31 -11 50 -25 19 -14 40 -25 48 -25 8 0 27 -9 43
-20 15 -12 45 -27 66 -34 l38 -13 3 -71 c2 -54 6 -72 17 -72 16 0 30 18 20 28
-3 3 -11 0 -16 -8 -11 -16 -5 122 6 153 5 13 31 15 161 16 146 2 154 1 154
-18 0 -18 -8 -19 -151 -20 -83 0 -154 -2 -157 -5 -3 -4 94 -6 216 -6 l222 0 0
-76 c0 -47 4 -73 10 -69 11 7 13 51 4 116 l-6 44 -65 -3 c-42 -3 -63 0 -59 6
3 6 3 17 0 26 -5 13 -24 16 -110 16 l-104 0 0 60 c0 33 4 60 10 60 6 0 10 5
10 11 0 8 -4 8 -14 0 -11 -9 -15 -9 -19 1 -4 10 -6 10 -6 1 -1 -8 -16 -13 -41
-13 l-40 0 0 45 0 45 71 0 71 0 -2 -42 c-2 -24 -2 -55 -1 -70 l1 -28 90 0 90
0 0 69 c0 60 2 69 20 74 15 4 20 14 20 36 0 17 -5 31 -11 31 -7 0 -10 -12 -7
-30 l5 -30 -179 0 -178 0 0 -32 c-1 -50 -18 -229 -22 -234 -7 -6 -91 28 -117
48 -13 10 -30 18 -38 18 -8 0 -28 11 -45 25 -16 14 -37 25 -47 25 -10 0 -28
11 -41 25 -13 14 -29 25 -36 25 -8 0 -27 13 -44 30 -17 17 -35 30 -41 30 -6 0
-24 12 -39 28 -16 15 -38 36 -50 47 -12 11 -26 25 -31 30 -6 6 -21 20 -35 32
-14 13 -24 33 -24 49 0 39 116 150 207 197 80 42 215 77 221 59 2 -8 49 -12
153 -12 123 0 149 3 149 14 0 8 5 18 12 22 6 4 9 3 6 -2 -4 -5 4 -9 16 -9 13
0 23 6 23 13 0 7 -6 11 -14 8 -10 -4 -12 2 -8 25 4 22 2 30 -7 27 -7 -3 -13
-12 -13 -21 0 -8 -4 -19 -8 -23 -4 -4 -7 9 -7 29 l0 37 195 0 c176 0 200 -2
235 -20 36 -18 59 -20 290 -20 l250 0 0 -532 c0 -293 0 -588 0 -655 l0 -123
99 0 98 0 6 -68 c4 -37 7 -244 7 -459 l0 -393 -100 0 -100 0 0 131 0 131 -77
-9 c-43 -4 -97 -8 -120 -8 -24 0 -43 -3 -43 -7 0 -5 -14 -8 -31 -8 -26 0 -30
3 -26 19 2 10 1 25 -4 32 -6 10 -9 3 -10 -21 l-2 -35 -7 35 -7 35 -2 -33 c-1
-21 4 -35 14 -38 9 -4 77 1 153 10 75 9 140 16 145 16 4 0 7 -56 7 -125 l0
-125 -165 0 -165 0 0 149 0 150 53 4 52 3 -53 2 -53 2 2 146 c1 137 -7 182
-28 161 -4 -4 -1 -13 5 -19 9 -9 12 -83 12 -264 l0 -253 -27 -3 -28 -3 24 -14
c20 -11 22 -11 16 1 -6 10 -5 10 4 2 7 -7 11 -22 9 -35 l-3 -24 -195 0 -195 0
0 463 c0 301 -3 462 -10 462 -7 0 -10 -161 -10 -462 l0 -463 -197 -3 -198 -2
0 135 0 135 -105 0 c-99 0 -105 1 -105 21 0 11 4 18 9 15 5 -3 11 3 14 14 3
13 0 20 -9 20 -12 0 -14 62 -14 390 l0 390 114 0 113 0 7 46 c3 26 6 72 6 103
0 40 3 52 10 41 9 -13 10 -13 10 0 0 13 1 13 10 0 8 -13 10 -12 10 3 0 10 -8
17 -19 17 -27 0 -51 -10 -51 -22 0 -5 5 -6 12 -2 8 5 9 -9 5 -56 -4 -35 -7
-76 -7 -91 l0 -29 -115 0 -116 0 3 -405 c2 -223 2 -401 0 -395 -2 5 -10 10
-18 10 -10 0 -14 15 -14 60 l0 60 -40 0 c-37 0 -40 2 -40 29 0 24 3 28 20 24
18 -5 20 0 20 56 0 54 -2 61 -20 61 -18 0 -20 7 -20 80 0 89 -1 89 -79 74 -36
-8 -45 -44 -11 -44 13 0 20 7 20 20 0 17 3 18 25 8 22 -10 25 -16 21 -47 -2
-20 -8 -44 -11 -53 -5 -13 -2 -18 9 -18 9 0 16 -7 16 -15 0 -9 7 -18 15 -21
23 -9 19 -67 -5 -89 -14 -13 -20 -29 -18 -48 2 -24 10 -32 38 -41 31 -10 35
-15 38 -51 2 -22 8 -45 14 -52 8 -10 2 -13 -26 -13 -20 0 -36 -5 -36 -11 0 -8
17 -10 50 -7 44 4 50 3 50 -13 0 -11 -7 -19 -15 -19 -8 0 -15 5 -15 10 0 6 -7
10 -16 10 -12 0 -8 -6 11 -22 19 -15 30 -18 33 -10 3 9 9 9 24 1 12 -6 52 -9
95 -7 96 6 98 2 90 -144 -5 -82 -4 -108 6 -108 9 0 8 -3 -1 -9 -10 -6 -13 -39
-13 -135 l1 -127 -152 2 -153 2 -5 291 -5 291 -3 -292 -2 -292 -148 0 -149 -1
-1 265 c-1 146 -3 271 -5 278 -3 18 -19 27 -46 27 -13 0 -22 3 -18 6 3 3 49 6
101 6 78 0 96 3 102 17 4 9 6 85 5 169 0 95 3 152 9 152 6 0 10 9 10 20 0 11
-4 20 -9 20 -20 0 -51 68 -51 112 0 58 -16 71 -88 74 -31 1 -60 3 -63 3 -3 1
-3 18 0 39 l6 37 70 -1 c168 -3 174 -6 175 -96 0 -31 5 -60 10 -63 6 -4 10 15
10 49 0 49 2 56 20 56 12 0 20 7 20 16 0 12 -6 15 -25 10 -21 -5 -25 -3 -25
17 0 23 -4 24 -82 30 -46 4 -111 7 -145 7 l-63 0 0 -65 0 -65 75 0 75 0 0 -60
c0 -47 3 -60 15 -60 8 0 15 -9 15 -20 0 -11 7 -20 15 -20 11 0 15 -11 15 -40
l0 -40 -144 0 -143 0 -7 -77 c-3 -42 -6 -91 -6 -110 l0 -34 150 3 150 3 0 -30
0 -30 -115 3 -115 3 0 -30 c0 -29 2 -31 40 -31 l40 0 0 -285 0 -285 333 0 332
0 -3 140 -4 140 689 0 688 0 -3 467 c-2 258 -5 469 -7 471 -1 1 -47 4 -101 7
l-99 4 0 113 c0 85 3 112 13 111 6 -2 12 3 12 10 0 8 4 7 10 -3 9 -13 10 -13
10 0 0 13 1 13 10 0 8 -13 10 -12 10 3 0 15 -6 18 -32 15 l-33 -3 -3 528 -2
527 -250 0 c-231 0 -254 2 -290 20 -35 18 -59 20 -245 20 -198 0 -205 -1 -205
-20z m210 -575 l0 -65 -80 0 c-76 0 -80 1 -81 23 -3 32 2 91 8 100 2 4 38 7
79 7 l74 0 0 -65z m-220 -60 l0 -35 -50 0 c-41 0 -50 3 -50 18 0 29 14 40 55
45 22 2 41 4 43 5 1 1 2 -14 2 -33z m0 -65 c0 -17 -7 -20 -50 -20 -43 0 -50 3
-50 20 0 17 7 20 50 20 43 0 50 -3 50 -20z m-570 -800 c0 -5 -4 -10 -10 -10
-5 0 -10 5 -10 10 0 6 5 10 10 10 6 0 10 -4 10 -10z m-100 -252 l0 -93 -30 1
c-16 1 -80 2 -141 3 l-111 1 7 32 c4 18 8 56 8 85 l0 52 131 4 c72 1 132 4
134 5 1 1 2 -40 2 -90z"/>
<path d="M1800 2046 c0 -24 4 -26 41 -26 36 0 40 2 37 23 -2 18 -10 23 -40 25
-35 3 -38 1 -38 -22z m30 -6 c0 -5 -4 -10 -10 -10 -5 0 -10 5 -10 10 0 6 5 10
10 10 6 0 10 -4 10 -10z m30 0 c0 -5 -5 -10 -11 -10 -5 0 -7 5 -4 10 3 6 8 10
11 10 2 0 4 -4 4 -10z"/>
<path d="M1838 2003 c7 -3 16 -2 19 1 4 3 -2 6 -13 5 -11 0 -14 -3 -6 -6z"/>
<path d="M860 861 c13 -10 13 -11 0 -11 -13 0 -13 -2 -1 -9 11 -7 10 -10 -5
-14 -16 -4 -15 -5 4 -6 19 -1 23 4 20 21 -2 12 -10 23 -18 25 -13 4 -13 3 0
-6z"/>
<path d="M920 865 c-2 -5 -2 -13 -1 -17 0 -4 -6 -5 -14 -2 -8 4 -15 2 -15 -4
0 -11 38 -23 44 -14 2 4 0 16 -5 27 -4 11 -8 16 -9 10z"/>
<path d="M1476 2581 c-4 -6 -1 -11 6 -11 10 0 9 -3 -2 -10 -10 -6 -6 -9 16 -8
19 1 31 6 31 15 0 8 -6 12 -12 9 -7 -2 -17 0 -23 6 -6 6 -12 6 -16 -1z"/>
<path d="M1940 2575 c0 -14 7 -21 22 -22 16 -2 19 0 9 6 -7 5 -17 15 -22 22
-7 11 -9 9 -9 -6z"/>
<path d="M2015 2581 c-3 -6 -11 -9 -16 -6 -5 4 -9 -1 -9 -9 0 -21 26 -20 34 0
8 20 1 30 -9 15z"/>
<path d="M1541 2566 c2 -35 17 -50 51 -51 23 0 35 4 35 13 0 9 -9 12 -27 10
-15 -2 -32 2 -40 10 -11 12 -10 13 7 8 13 -4 20 -2 20 8 0 7 -10 14 -24 14
-12 0 -23 -6 -22 -12z"/>
<path d="M1597 2574 c-8 -8 1 -24 12 -24 4 0 8 7 8 15 0 16 -9 20 -20 9z"/>
<path d="M1628 2575 c-11 -11 17 -55 35 -55 9 0 17 5 17 11 0 6 -6 9 -14 6
-10 -4 -18 3 -23 19 -5 14 -11 22 -15 19z"/>
<path d="M1770 2565 c0 -8 5 -15 10 -15 6 0 10 -7 10 -15 0 -14 12 -20 34 -16
4 1 28 2 52 3 24 0 44 4 44 8 0 4 -27 7 -60 6 -45 -1 -61 2 -66 14 -4 8 -6 18
-6 23 1 4 -2 7 -8 7 -5 0 -10 -7 -10 -15z"/>
<path d="M1794 2568 c-7 -10 -7 -10 42 -13 26 -1 41 3 41 10 0 14 -75 17 -83
3z"/>
<path d="M1885 2571 c-3 -5 -1 -12 4 -15 5 -4 12 0 14 6 4 10 6 10 6 1 1 -18
21 -16 21 2 0 16 -35 21 -45 6z"/>
<path d="M240 2533 c-16 -6 -30 -23 -30 -36 0 -4 20 -17 45 -28 50 -22 58 -39
20 -39 -14 0 -25 5 -25 10 0 6 -9 10 -20 10 -23 0 -26 -10 -8 -28 14 -14 76
-16 96 -3 24 15 8 45 -32 64 -28 14 -36 21 -28 29 9 9 18 8 37 -2 31 -16 47
-4 21 16 -20 14 -49 17 -76 7z"/>
<path d="M370 2475 c0 -56 3 -65 18 -65 16 0 18 9 19 65 0 57 -2 65 -19 65
-16 0 -18 -8 -18 -65z"/>
<path d="M455 2526 c-25 -18 -14 -42 30 -60 19 -8 35 -20 35 -25 0 -14 -37
-14 -45 -1 -8 13 -45 13 -45 0 0 -27 95 -41 118 -18 22 22 12 39 -35 59 -35
15 -43 23 -35 31 9 9 18 8 37 -2 31 -16 47 -4 21 16 -25 18 -57 18 -81 0z"/>
<path d="M660 2476 l0 -66 44 0 c24 0 51 3 60 6 17 7 22 54 6 54 -6 0 -5 8 2
20 18 28 0 42 -61 48 l-51 5 0 -67z m76 33 c3 -6 0 -15 -7 -20 -22 -14 -29
-11 -29 11 0 21 24 27 36 9z m3 -48 c18 -11 5 -31 -20 -31 -12 0 -19 7 -19 20
0 21 16 26 39 11z"/>
<path d="M853 2528 c-25 -12 -32 -31 -8 -22 12 5 15 -4 15 -45 0 -39 4 -51 15
-51 12 0 15 14 15 65 0 68 -1 70 -37 53z"/>
<path d="M1930 2524 c0 -8 5 -12 10 -9 6 3 10 10 10 16 0 5 -4 9 -10 9 -5 0
-10 -7 -10 -16z"/>
<path d="M1718 2474 c-5 -4 -8 -65 -8 -136 l0 -128 124 0 c116 0 125 -1 131
-20 3 -11 13 -20 22 -20 11 0 9 6 -8 25 -23 23 -29 25 -141 25 l-118 0 0 110
0 110 55 0 c30 0 55 -4 55 -10 0 -5 8 -10 18 -10 15 1 15 2 -2 15 -11 8 -41
15 -67 15 -35 0 -48 4 -51 16 -2 9 -6 12 -10 8z"/>
<path d="M1930 2449 l-75 -5 73 -2 c40 -1 72 -6 72 -12 0 -6 37 -10 90 -10
l90 0 0 -44 0 -44 45 -4 c25 -2 45 0 45 4 0 4 -17 8 -37 10 -37 3 -38 4 -41
46 l-3 42 -89 0 c-62 0 -89 4 -92 13 -2 9 -22 11 -78 6z"/>
<path d="M1746 2395 c4 -8 8 -15 10 -15 2 0 4 7 4 15 0 8 -4 15 -10 15 -5 0
-7 -7 -4 -15z"/>
<path d="M1800 2400 c0 -5 5 -10 10 -10 6 0 10 5 10 10 0 6 -4 10 -10 10 -5 0
-10 -4 -10 -10z"/>
<path d="M2050 2384 c0 -8 5 -12 10 -9 6 4 8 11 5 16 -9 14 -15 11 -15 -7z"/>
<path d="M1810 2354 c0 -8 5 -12 10 -9 6 3 10 10 10 16 0 5 -4 9 -10 9 -5 0
-10 -7 -10 -16z"/>
<path d="M2127 2364 c-8 -8 1 -24 14 -24 5 0 9 7 9 15 0 15 -12 20 -23 9z"/>
<path d="M1905 2340 c-3 -5 1 -10 9 -10 9 0 16 5 16 10 0 6 -4 10 -9 10 -6 0
-13 -4 -16 -10z"/>
<path d="M1745 2320 c3 -5 8 -10 11 -10 2 0 4 5 4 10 0 6 -5 10 -11 10 -5 0
-7 -4 -4 -10z"/>
<path d="M2050 2294 c0 -8 5 -12 10 -9 6 3 10 10 10 16 0 5 -4 9 -10 9 -5 0
-10 -7 -10 -16z"/>
<path d="M2278 2303 c12 -2 32 -2 45 0 12 2 2 4 -23 4 -25 0 -35 -2 -22 -4z"/>
<path d="M2366 2301 c-11 -4 18 -6 65 -3 l84 4 0 -91 0 -91 -67 0 -68 0 0 35
0 36 -52 -6 c-29 -4 -59 -8 -65 -10 -20 -7 -15 -43 7 -55 13 -7 20 -7 20 -1 0
7 9 7 25 1 24 -9 25 -8 25 25 0 24 5 35 15 35 10 0 15 -10 15 -30 0 -16 -4
-30 -10 -30 -6 0 -10 -53 -10 -139 l0 -140 35 6 35 6 0 -96 c0 -77 -3 -96 -15
-100 -11 -4 -10 -4 2 -3 16 1 18 14 21 104 3 109 3 108 -49 103 -14 -2 -17 9
-18 66 0 43 4 70 12 75 9 6 9 8 0 8 -9 0 -13 17 -13 51 l0 50 84 -3 84 -3 -1
100 -2 100 -70 2 c-38 1 -79 -2 -89 -6z m-81 -140 c3 -5 1 -12 -5 -16 -5 -3
-10 1 -10 9 0 18 6 21 15 7z m39 -6 c3 -9 0 -15 -9 -15 -9 0 -12 6 -9 15 4 8
7 15 9 15 2 0 5 -7 9 -15z"/>
<path d="M1838 2293 c7 -3 16 -2 19 1 4 3 -2 6 -13 5 -11 0 -14 -3 -6 -6z"/>
<path d="M1978 2293 c7 -3 16 -2 19 1 4 3 -2 6 -13 5 -11 0 -14 -3 -6 -6z"/>
<path d="M2211 2248 c1 -55 5 -50 11 15 2 20 0 37 -4 37 -4 0 -7 -24 -7 -52z"/>
<path d="M1797 2254 c3 -8 12 -14 20 -12 23 5 20 21 -4 24 -17 3 -21 0 -16
-12z"/>
<path d="M1920 2256 c0 -9 5 -16 10 -16 6 0 10 4 10 9 0 6 -4 13 -10 16 -5 3
-10 -1 -10 -9z"/>
<path d="M2130 2254 c0 -8 5 -12 10 -9 6 3 10 10 10 16 0 5 -4 9 -10 9 -5 0
-10 -7 -10 -16z"/>
<path d="M2340 2240 c0 -13 5 -20 13 -17 6 2 12 10 12 17 0 7 -6 15 -12 18 -8
2 -13 -5 -13 -18z"/>
<path d="M2384 2240 c0 -11 5 -19 11 -17 5 2 10 10 10 17 0 7 -5 15 -10 17 -6
2 -11 -6 -11 -17z"/>
<path d="M2040 2211 c0 -6 9 -9 20 -8 11 1 20 5 20 9 0 4 -9 8 -20 8 -11 0
-20 -4 -20 -9z"/>
<path d="M1520 2175 c0 -8 7 -15 15 -15 8 0 15 7 15 15 0 8 -7 15 -15 15 -8 0
-15 -7 -15 -15z"/>
<path d="M1560 2173 c0 -6 9 -11 20 -10 11 1 20 6 20 12 0 6 -9 11 -20 11 -11
0 -20 -6 -20 -13z"/>
<path d="M1611 2178 c-1 -10 6 -18 14 -18 8 0 15 8 15 18 0 13 -2 14 -9 3 -7
-11 -9 -11 -14 0 -4 10 -6 9 -6 -3z"/>
<path d="M1830 2180 c0 -5 7 -10 16 -10 8 0 12 5 9 10 -3 6 -10 10 -16 10 -5
0 -9 -4 -9 -10z"/>
<path d="M2210 2180 c0 -5 5 -10 10 -10 6 0 10 5 10 10 0 6 -4 10 -10 10 -5 0
-10 -4 -10 -10z"/>
<path d="M2140 2160 c0 -5 5 -10 10 -10 6 0 10 5 10 10 0 6 -4 10 -10 10 -5 0
-10 -4 -10 -10z"/>
<path d="M2211 2138 c-1 -16 4 -28 9 -28 12 0 12 8 0 35 -8 18 -9 17 -9 -7z"/>
<path d="M1471 2138 c-1 -10 6 -18 14 -18 8 0 15 8 15 18 0 13 -2 14 -9 3 -7
-11 -9 -11 -14 0 -4 10 -6 9 -6 -3z"/>
<path d="M1510 2138 c0 -10 2 -18 4 -18 2 0 11 -3 20 -6 12 -4 16 0 16 15 0
12 -4 21 -10 21 -5 0 -10 -6 -10 -12 0 -9 -4 -8 -10 2 -8 13 -10 12 -10 -2z"/>
<path d="M1579 2141 c11 -7 11 -9 0 -14 -10 -4 -9 -6 4 -6 9 -1 17 6 17 14 0
8 -8 15 -17 15 -14 0 -15 -2 -4 -9z"/>
<path d="M1611 2134 c0 -11 3 -14 6 -6 3 7 2 16 -1 19 -3 4 -6 -2 -5 -13z"/>
<path d="M1636 2141 c-4 -7 -5 -15 -2 -18 9 -9 19 4 14 18 -4 11 -6 11 -12 0z"/>
<path d="M1660 2128 c0 -10 5 -16 10 -13 6 4 7 12 4 18 -5 8 -3 8 7 0 7 -7 19
-13 26 -13 23 0 3 25 -22 26 -19 2 -25 -3 -25 -18z"/>
<path d="M640 1965 c0 -74 -2 -135 -5 -135 -2 0 -50 18 -105 40 -68 27 -106
37 -117 32 -21 -12 -63 -3 -63 14 0 10 6 11 26 3 15 -5 28 -8 30 -6 2 2 -45
24 -105 48 -61 24 -110 49 -110 54 -1 6 81 12 216 15 l218 6 -225 -1 c-200 0
-225 -2 -228 -16 -2 -13 18 -25 82 -50 73 -29 85 -37 90 -61 5 -24 10 -28 40
-28 19 0 36 4 38 10 2 6 35 -2 76 -18 69 -27 87 -45 36 -36 -17 3 -22 0 -18
-9 6 -16 56 -16 61 0 3 8 12 9 34 1 21 -7 29 -16 29 -34 0 -21 -5 -24 -34 -24
l-35 0 1 -52 c1 -40 3 -47 8 -28 4 14 5 35 3 48 -5 20 -1 22 31 22 24 0 36 5
36 14 0 9 7 12 20 9 11 -3 20 0 20 6 0 6 -9 11 -21 11 -19 0 -20 5 -17 65 l3
65 63 0 c55 0 62 -2 62 -20 0 -16 -7 -20 -35 -20 -24 0 -35 5 -35 15 0 8 -4
15 -10 15 -12 0 -9 -22 5 -32 6 -4 34 -8 63 -8 l52 0 0 -155 0 -155 -27 0
c-27 0 -106 47 -99 59 2 3 -2 12 -10 19 -9 8 -14 9 -14 2 0 -6 -13 -2 -29 9
-16 12 -35 21 -43 20 -10 0 -9 -2 2 -7 20 -9 66 -40 118 -79 l44 -33 154 0
154 0 0 200 0 200 -60 0 -60 0 0 31 c0 30 -1 31 -39 24 -22 -3 -60 -3 -85 0
-46 7 -46 8 -46 46 l0 39 -70 0 -70 0 0 -135z m131 88 c0 -16 2 -47 5 -70 l5
-43 -65 0 -66 0 0 63 c0 35 3 67 7 70 3 4 30 7 60 7 51 0 53 -1 54 -27z m59
-68 c0 -18 -5 -25 -20 -25 -15 0 -20 7 -20 25 0 18 5 25 20 25 15 0 20 -7 20
-25z m110 0 c0 -16 -6 -25 -15 -25 -9 0 -15 9 -15 25 0 16 6 25 15 25 9 0 15
-9 15 -25z m-80 -1 c0 -8 -4 -12 -10 -9 -5 3 -10 10 -10 16 0 5 5 9 10 9 6 0
10 -7 10 -16z m27 -6 c-3 -8 -6 -5 -6 6 -1 11 2 17 5 13 3 -3 4 -12 1 -19z
m136 -34 l37 -6 0 -184 0 -184 -115 0 -115 0 0 156 c0 147 -1 156 -20 161 -30
8 -28 60 3 66 24 6 148 0 210 -9z"/>
<path d="M830 1911 c0 -5 6 -12 13 -14 8 -4 8 -6 -2 -6 -11 -1 -10 -5 5 -17
10 -8 13 -13 7 -9 -7 3 -13 2 -13 -3 0 -12 54 -23 58 -12 2 4 17 6 34 3 20 -3
28 -1 23 6 -9 16 -78 14 -69 -1 4 -7 -2 -4 -13 7 -12 11 -21 22 -21 25 0 21
-3 30 -12 30 -5 0 -10 -4 -10 -9z"/>
<path d="M870 1905 c0 -8 4 -15 10 -15 5 0 7 7 4 15 -4 8 -8 15 -10 15 -2 0
-4 -7 -4 -15z"/>
<path d="M892 1909 c2 -6 7 -10 12 -9 5 1 12 -4 16 -10 10 -16 30 -4 29 18 0
14 -2 13 -9 -3 -6 -14 -9 -15 -9 -5 -1 9 -10 16 -22 17 -11 1 -19 -3 -17 -8z"/>
<path d="M900 1735 l0 -35 50 0 50 0 0 35 0 35 -50 0 -50 0 0 -35z m40 -1 c0
-8 -4 -14 -9 -14 -11 0 -22 26 -14 34 9 9 23 -3 23 -20z m40 0 c0 -14 -12 -19
-23 -8 -9 9 4 35 14 28 5 -3 9 -12 9 -20z"/>
<path d="M2060 2084 c0 -8 5 -12 10 -9 6 3 10 10 10 16 0 5 -4 9 -10 9 -5 0
-10 -7 -10 -16z"/>
<path d="M2250 2090 c0 -5 5 -10 10 -10 6 0 10 5 10 10 0 6 -4 10 -10 10 -5 0
-10 -4 -10 -10z"/>
<path d="M2380 2065 c0 -7 8 -12 17 -11 24 4 27 21 3 23 -11 1 -20 -4 -20 -12z"/>
<path d="M2431 2064 c0 -11 3 -14 6 -6 3 7 2 16 -1 19 -3 4 -6 -2 -5 -13z"/>
<path d="M2454 2071 c-12 -12 1 -17 46 -17 30 -1 49 3 47 10 -3 9 -84 16 -93
7z"/>
<path d="M2300 2055 c0 -6 9 -11 20 -12 11 -1 20 4 20 10 0 7 -9 13 -20 13
-11 0 -20 -5 -20 -11z"/>
<path d="M2048 2029 c-2 -6 -28 -12 -57 -12 -33 -1 -46 -4 -35 -8 11 -4 36 -5
57 -2 37 6 38 5 32 -20 -5 -20 -3 -25 10 -23 9 1 20 7 23 13 4 6 14 13 22 16
8 2 3 3 -12 1 -27 -3 -33 3 -29 34 2 15 -6 16 -11 1z"/>
<path d="M2140 2030 c0 -5 5 -10 10 -10 6 0 10 5 10 10 0 6 -4 10 -10 10 -5 0
-10 -4 -10 -10z"/>
<path d="M2455 2009 c-48 -4 -22 -6 80 -6 144 0 161 3 45 9 -30 2 -86 0 -125
-3z"/>
<path d="M280 1998 c0 -4 9 -8 20 -8 11 0 20 4 20 9 0 6 -9 9 -20 8 -11 -1
-20 -5 -20 -9z"/>
<path d="M420 2000 c0 -5 5 -10 10 -10 6 0 10 5 10 10 0 6 -4 10 -10 10 -5 0
-10 -4 -10 -10z"/>
<path d="M535 2000 c3 -5 8 -10 11 -10 2 0 4 5 4 10 0 6 -5 10 -11 10 -5 0 -7
-4 -4 -10z"/>
<path d="M560 2001 c0 -11 26 -22 34 -14 12 12 5 23 -14 23 -11 0 -20 -4 -20
-9z"/>
<path d="M2143 1993 c9 -2 25 -2 35 0 9 3 1 5 -18 5 -19 0 -27 -2 -17 -5z"/>
<path d="M2278 1690 l3 -309 -108 -4 -108 -3 113 -2 112 -2 0 315 c0 173 -3
315 -7 315 -5 0 -7 -139 -5 -310z"/>
<path d="M1960 1980 c0 -5 5 -10 10 -10 6 0 10 5 10 10 0 6 -4 10 -10 10 -5 0
-10 -4 -10 -10z"/>
<path d="M2250 1980 c0 -6 -4 -8 -10 -5 -5 3 -10 1 -10 -4 0 -6 9 -11 20 -11
21 0 27 15 10 25 -5 3 -10 1 -10 -5z"/>
<path d="M2524 1900 c0 -52 1 -74 3 -47 2 26 2 68 0 95 -2 26 -3 4 -3 -48z"/>
<path d="M2390 1935 l0 -35 55 0 54 0 -1 35 -1 35 -54 0 -53 0 0 -35z m85 15
c-27 -12 -35 -12 -35 0 0 6 12 10 28 9 24 0 25 -1 7 -9z m-10 -24 c-16 -7 -38
-11 -48 -8 -27 7 -4 18 40 19 l38 1 -30 -12z"/>
<path d="M2133 1953 l57 -4 0 -244 0 -244 -52 -4 -53 -3 58 -2 57 -2 0 255 0
255 -62 -2 -63 -2 58 -3z"/>
<path d="M420 1940 c0 -5 5 -10 10 -10 6 0 10 5 10 10 0 6 -4 10 -10 10 -5 0
-10 -4 -10 -10z"/>
<path d="M2044 1935 c-4 -8 -4 -22 0 -30 4 -12 -4 -15 -39 -15 -25 0 -45 -3
-45 -8 0 -4 19 -7 43 -5 38 2 39 1 12 -7 l-30 -8 35 1 c33 2 35 4 38 45 3 42
-4 55 -14 27z"/>
<path d="M2123 1926 c0 -7 9 -13 19 -13 10 -1 18 2 18 6 0 5 -8 11 -18 13 -10
3 -19 0 -19 -6z"/>
<path d="M2301 1924 c0 -11 3 -14 6 -6 3 7 2 16 -1 19 -3 4 -6 -2 -5 -13z"/>
<path d="M2325 1931 c-3 -5 -1 -12 5 -16 5 -3 10 1 10 9 0 18 -6 21 -15 7z"/>
<path d="M670 1904 c0 -8 5 -12 10 -9 6 4 8 11 5 16 -9 14 -15 11 -15 -7z"/>
<path d="M1800 1907 c0 -17 42 -15 48 1 2 7 -7 12 -22 12 -15 0 -26 -6 -26
-13z"/>
<path d="M333 1800 c0 -47 2 -66 4 -42 2 23 2 61 0 85 -2 23 -4 4 -4 -43z"/>
<path d="M2310 1870 c0 -5 5 -10 10 -10 6 0 10 5 10 10 0 6 -4 10 -10 10 -5 0
-10 -4 -10 -10z"/>
<path d="M450 1860 c0 -5 5 -10 11 -10 5 0 7 5 4 10 -3 6 -8 10 -11 10 -2 0
-4 -4 -4 -10z"/>
<path d="M2220 1860 c0 -5 5 -10 10 -10 6 0 10 5 10 10 0 6 -4 10 -10 10 -5 0
-10 -4 -10 -10z"/>
<path d="M1940 1852 c0 -4 9 -8 20 -9 11 -1 20 2 20 8 0 5 -9 9 -20 9 -11 0
-20 -4 -20 -8z"/>
<path d="M2060 1850 c0 -5 5 -10 10 -10 6 0 10 5 10 10 0 6 -4 10 -10 10 -5 0
-10 -4 -10 -10z"/>
<path d="M675 1840 c3 -5 10 -10 16 -10 5 0 9 5 9 10 0 6 -7 10 -16 10 -8 0
-12 -4 -9 -10z"/>
<path d="M2110 1805 c0 -8 5 -15 10 -15 6 0 10 7 10 15 0 8 -4 15 -10 15 -5 0
-10 -7 -10 -15z"/>
<path d="M2140 1805 c0 -8 2 -15 4 -15 2 0 6 7 10 15 3 8 1 15 -4 15 -6 0 -10
-7 -10 -15z"/>
<path d="M2340 1805 c0 -8 5 -15 10 -15 6 0 10 7 10 15 0 8 -4 15 -10 15 -5 0
-10 -7 -10 -15z"/>
<path d="M700 1790 c0 -5 5 -10 10 -10 6 0 10 5 10 10 0 6 -4 10 -10 10 -5 0
-10 -4 -10 -10z"/>
<path d="M1721 1784 c0 -11 3 -14 6 -6 3 7 2 16 -1 19 -3 4 -6 -2 -5 -13z"/>
<path d="M1743 1784 c0 -7 9 -12 19 -11 10 1 18 6 18 12 0 6 -8 11 -18 11 -10
0 -19 -6 -19 -12z"/>
<path d="M1941 1784 c0 -11 3 -14 6 -6 3 7 2 16 -1 19 -3 4 -6 -2 -5 -13z"/>
<path d="M1975 1790 c-19 -7 -19 -8 -2 -15 10 -4 23 -3 29 3 14 14 -3 21 -27
12z"/>
<path d="M2446 1775 c-4 -11 2 -15 24 -15 20 0 30 5 30 15 0 18 -16 20 -23 3
-4 -10 -6 -10 -6 0 -1 17 -18 15 -25 -3z"/>
<path d="M2510 1774 c0 -8 9 -14 20 -14 11 0 20 6 20 13 0 7 -9 13 -20 14 -11
1 -20 -4 -20 -13z"/>
<path d="M2223 1746 c0 -8 10 -13 24 -12 28 1 25 18 -3 22 -12 2 -21 -2 -21
-10z"/>
<path d="M2450 1728 c0 -9 5 -20 10 -23 13 -8 13 5 0 25 -8 13 -10 13 -10 -2z"/>
<path d="M2470 1731 c0 -5 7 -14 15 -21 12 -10 15 -10 15 3 0 8 -7 17 -15 21
-8 3 -15 2 -15 -3z"/>
<path d="M2556 1731 c-3 -5 -15 -7 -26 -4 -15 4 -20 1 -19 -13 0 -11 3 -14 5
-7 7 17 34 4 34 -16 0 -10 9 -17 20 -18 11 -1 20 2 20 8 0 5 -7 9 -15 9 -11 0
-14 7 -9 25 6 25 0 33 -10 16z"/>
<path d="M2580 1724 c0 -10 6 -14 15 -11 8 4 17 2 20 -3 10 -16 35 -11 35 6 0
9 -6 14 -12 11 -7 -2 -23 0 -35 4 -18 7 -23 5 -23 -7z"/>
<path d="M370 1716 c0 -9 7 -12 20 -9 11 3 20 9 20 14 0 5 -9 9 -20 9 -11 0
-20 -6 -20 -14z"/>
<path d="M600 1722 c0 -4 9 -8 20 -9 11 -1 20 2 20 8 0 5 -9 9 -20 9 -11 0
-20 -4 -20 -8z"/>
<path d="M670 1720 c0 -5 5 -10 11 -10 5 0 7 5 4 10 -3 6 -8 10 -11 10 -2 0
-4 -4 -4 -10z"/>
<path d="M750 1720 c0 -5 5 -10 10 -10 6 0 10 5 10 10 0 6 -4 10 -10 10 -5 0
-10 -4 -10 -10z"/>
<path d="M1620 1720 c0 -5 5 -10 10 -10 6 0 10 5 10 10 0 6 -4 10 -10 10 -5 0
-10 -4 -10 -10z"/>
<path d="M1670 1714 c0 -8 5 -12 10 -9 6 3 10 10 10 16 0 5 -4 9 -10 9 -5 0
-10 -7 -10 -16z"/>
<path d="M1850 1716 c0 -9 7 -12 20 -9 11 3 20 9 20 14 0 5 -9 9 -20 9 -11 0
-20 -6 -20 -14z"/>
<path d="M324 1656 l1 -48 100 -38 c161 -60 145 -61 145 7 0 32 -4 63 -8 69
-12 17 -39 23 -39 8 0 -7 3 -11 7 -9 18 11 31 -16 28 -62 l-3 -49 -112 40
-112 41 -4 45 -4 45 1 -49z"/>
<path d="M1483 1695 c0 -8 6 -15 14 -15 7 0 13 7 13 15 0 8 -6 15 -13 15 -8 0
-14 -7 -14 -15z"/>
<path d="M1512 1682 c-16 -34 -15 -42 4 -42 10 0 14 7 12 23 -2 16 1 21 15 19
9 -2 17 3 17 10 0 25 -35 17 -48 -10z"/>
<path d="M2113 1685 c0 -8 4 -15 9 -15 4 0 8 7 8 15 0 8 -4 15 -8 15 -5 0 -9
-7 -9 -15z"/>
<path d="M2140 1684 c0 -8 5 -12 10 -9 6 4 8 11 5 16 -9 14 -15 11 -15 -7z"/>
<path d="M2340 1687 c0 -8 8 -13 18 -12 26 2 30 18 5 21 -14 3 -23 -1 -23 -9z"/>
<path d="M2440 1688 c0 -8 18 -14 50 -16 33 -2 50 1 50 9 0 7 -11 9 -30 6 -20
-5 -30 -3 -30 6 0 8 -4 7 -10 -3 -6 -10 -10 -11 -10 -2 0 6 -4 12 -10 12 -5 0
-10 -6 -10 -12z"/>
<path d="M2600 1682 c0 -4 14 -9 30 -10 17 -1 30 2 30 8 0 5 -13 10 -30 10
-16 0 -30 -4 -30 -8z"/>
<path d="M501 1654 c0 -11 3 -14 6 -6 3 7 2 16 -1 19 -3 4 -6 -2 -5 -13z"/>
<path d="M1740 1656 c0 -9 7 -12 20 -9 11 3 20 9 20 14 0 5 -9 9 -20 9 -11 0
-20 -6 -20 -14z"/>
<path d="M1960 1660 c0 -5 5 -10 10 -10 6 0 10 5 10 10 0 6 -4 10 -10 10 -5 0
-10 -4 -10 -10z"/>
<path d="M735 1650 c3 -5 8 -10 11 -10 2 0 4 5 4 10 0 6 -5 10 -11 10 -5 0 -7
-4 -4 -10z"/>
<path d="M780 1650 c0 -5 5 -10 11 -10 5 0 7 5 4 10 -3 6 -8 10 -11 10 -2 0
-4 -4 -4 -10z"/>
<path d="M2055 1650 c3 -5 10 -10 16 -10 5 0 9 5 9 10 0 6 -7 10 -16 10 -8 0
-12 -4 -9 -10z"/>
<path d="M2350 1611 l0 -49 48 5 c69 7 74 11 15 12 -51 1 -53 2 -53 29 0 15 5
33 12 40 9 9 8 12 -5 12 -14 0 -17 -10 -17 -49z"/>
<path d="M370 1630 c0 -5 5 -10 10 -10 6 0 10 5 10 10 0 6 -4 10 -10 10 -5 0
-10 -4 -10 -10z"/>
<path d="M2386 1633 c-12 -12 -6 -33 9 -33 8 0 15 6 15 14 0 17 -14 28 -24 19z"/>
<path d="M2612 1620 c0 -14 2 -19 5 -12 2 6 2 18 0 25 -3 6 -5 1 -5 -13z"/>
<path d="M2046 1564 c4 -90 14 -94 14 -6 0 40 -4 72 -9 72 -4 0 -7 -30 -5 -66z"/>
<path d="M2420 1620 c0 -12 11 -16 40 -16 47 0 56 22 10 24 -17 0 -30 -5 -30
-11 0 -7 -4 -6 -10 3 -9 13 -10 13 -10 0z"/>
<path d="M2510 1611 c0 -14 2 -14 10 -1 8 12 10 12 10 1 0 -11 3 -11 17 0 9 8
14 9 10 3 -4 -7 2 -11 18 -11 14 0 25 5 25 12 0 8 -16 12 -45 12 -35 0 -45 -4
-45 -16z"/>
<path d="M2226 1605 c-3 -8 -1 -15 4 -15 6 0 10 7 10 15 0 8 -2 15 -4 15 -2 0
-6 -7 -10 -15z"/>
<path d="M2250 1604 c0 -8 5 -12 10 -9 6 3 10 10 10 16 0 5 -4 9 -10 9 -5 0
-10 -7 -10 -16z"/>
<path d="M450 1600 c0 -5 5 -10 11 -10 5 0 7 5 4 10 -3 6 -8 10 -11 10 -2 0
-4 -4 -4 -10z"/>
<path d="M1620 1601 c0 -5 6 -11 14 -14 18 -7 56 3 56 15 0 11 -33 6 -42 -7
-5 -6 -8 -5 -8 3 0 6 -4 12 -10 12 -5 0 -10 -4 -10 -9z"/>
<path d="M1831 1594 c0 -11 3 -14 6 -6 3 7 2 16 -1 19 -3 4 -6 -2 -5 -13z"/>
<path d="M1850 1596 c0 -9 7 -12 20 -9 11 3 20 9 20 14 0 5 -9 9 -20 9 -11 0
-20 -6 -20 -14z"/>
<path d="M2500 1571 c-25 -6 -25 -7 -19 -81 6 -77 12 -62 9 23 -1 36 2 47 14
47 8 0 18 5 21 10 3 6 5 9 3 9 -2 -1 -14 -4 -28 -8z"/>
<path d="M2121 1533 c0 -10 3 -13 5 -6 3 7 12 9 20 6 8 -3 14 0 14 6 0 6 -9
11 -20 11 -13 0 -20 -6 -19 -17z"/>
<path d="M2305 1539 c-4 -6 -4 -13 0 -17 4 -4 10 -2 12 5 2 7 11 9 19 6 8 -3
14 0 14 6 0 14 -37 14 -45 0z"/>
<path d="M2430 1534 c0 -7 8 -10 20 -7 11 3 20 9 20 14 0 4 -9 7 -20 6 -11 -1
-20 -7 -20 -13z"/>
<path d="M2520 1521 c0 -12 6 -21 16 -21 9 0 14 7 12 17 -5 25 -28 28 -28 4z"/>
<path d="M1721 1514 c0 -11 3 -14 6 -6 3 7 2 16 -1 19 -3 4 -6 -2 -5 -13z"/>
<path d="M1740 1515 c0 -10 6 -15 17 -13 19 3 31 28 13 28 -6 0 -8 -5 -4 -12
5 -9 2 -9 -9 1 -15 12 -17 11 -17 -4z"/>
<path d="M1941 1514 c0 -11 3 -14 6 -6 3 7 2 16 -1 19 -3 4 -6 -2 -5 -13z"/>
<path d="M1990 1520 c0 -5 -7 -6 -17 -3 -11 4 -14 3 -9 -5 10 -17 36 -15 36 3
0 8 -2 15 -5 15 -3 0 -5 -4 -5 -10z"/>
<path d="M2560 1515 c0 -8 5 -15 10 -15 6 0 10 7 10 15 0 8 -4 15 -10 15 -5 0
-10 -7 -10 -15z"/>
<path d="M2590 1514 c0 -6 14 -11 30 -12 17 0 30 5 30 11 0 8 3 8 9 -1 7 -11
9 -11 14 1 5 13 -3 15 -39 14 -25 -1 -44 -6 -44 -13z"/>
<path d="M2363 1475 c0 -8 8 -15 18 -15 21 0 34 16 20 24 -5 4 -12 0 -14 -6
-4 -10 -6 -10 -6 0 -1 17 -18 15 -18 -3z"/>
<path d="M1810 1470 l-245 -6 258 -2 c166 -1 257 2 257 8 0 6 -6 9 -12 8 -7
-1 -123 -5 -258 -8z"/>
<path d="M2223 1465 c0 -8 4 -15 9 -15 4 0 8 7 8 15 0 8 -4 15 -8 15 -5 0 -9
-7 -9 -15z"/>
<path d="M2251 1464 c0 -11 3 -14 6 -6 3 7 2 16 -1 19 -3 4 -6 -2 -5 -13z"/>
<path d="M2618 1463 c12 -2 32 -2 45 0 12 2 2 4 -23 4 -25 0 -35 -2 -22 -4z"/>
<path d="M2352 1284 c1 -103 4 -146 7 -110 6 60 27 87 38 48 5 -20 43 -28 43
-9 0 5 -6 7 -13 4 -7 -3 -19 4 -26 15 -7 11 -18 18 -24 15 -9 -3 -13 23 -16
97 -5 163 -11 124 -9 -60z"/>
<path d="M2500 1419 c0 -17 -4 -28 -10 -24 -5 3 -10 1 -10 -5 0 -7 7 -9 16 -6
9 3 36 6 60 6 42 0 44 1 44 30 0 29 -1 30 -50 30 -49 0 -50 -1 -50 -31z m40 1
c0 -11 -4 -20 -9 -20 -11 0 -22 26 -14 34 12 12 23 5 23 -14z m40 0 c0 -11 -4
-20 -10 -20 -5 0 -10 9 -10 20 0 11 5 20 10 20 6 0 10 -9 10 -20z"/>
<path d="M2113 1406 c0 -7 7 -12 16 -11 25 2 28 18 5 21 -12 2 -21 -2 -21 -10z"/>
<path d="M2430 1404 c0 -15 33 -11 38 4 2 6 -6 10 -17 9 -12 -1 -21 -7 -21
-13z"/>
<path d="M2300 1401 c0 -6 9 -9 20 -8 11 1 20 5 20 9 0 4 -9 8 -20 8 -11 0
-20 -4 -20 -9z"/>
<path d="M1368 1363 c18 -2 45 -2 60 0 15 2 0 4 -33 4 -33 0 -45 -2 -27 -4z"/>
<path d="M1563 1363 l107 -4 0 -39 0 -40 -72 -1 c-59 -2 -48 -4 57 -11 72 -5
131 -11 132 -12 2 -1 5 -46 7 -99 l5 -97 -227 -3 -227 -2 227 -3 227 -2 0 -95
1 -95 -233 -3 -232 -2 232 -3 231 -2 0 -245 c0 -135 2 -249 6 -252 3 -4 6 201
6 455 l0 461 -62 3 -62 3 3 48 3 47 -119 -2 -118 -2 108 -3z"/>
<path d="M2580 1350 c0 -11 5 -20 10 -20 6 0 10 9 10 20 0 11 -4 20 -10 20 -5
0 -10 -9 -10 -20z"/>
<path d="M1420 1320 c0 -29 1 -30 50 -30 49 0 50 1 50 30 0 29 -1 30 -50 30
-49 0 -50 -1 -50 -30z m33 -6 c-4 -12 -8 -13 -14 -3 -9 15 -2 32 11 24 5 -3 6
-13 3 -21z m42 -4 c-6 -9 -9 -9 -16 1 -10 17 0 34 13 21 6 -6 7 -16 3 -22z"/>
<path d="M2023 1334 c0 -9 8 -14 21 -12 12 2 21 7 21 12 0 5 -9 10 -21 12 -13
2 -21 -2 -21 -12z"/>
<path d="M2430 1334 c0 -7 8 -10 20 -7 11 3 20 9 20 14 0 4 -9 7 -20 6 -11 -1
-20 -7 -20 -13z"/>
<path d="M2220 1324 c0 -14 2 -15 17 -3 14 12 16 12 8 0 -5 -10 -4 -12 3 -7
19 11 14 26 -8 26 -12 0 -20 -7 -20 -16z"/>
<path d="M2388 1313 c19 -4 23 -9 18 -29 -4 -14 -2 -24 4 -24 5 0 10 14 10 30
0 26 -3 30 -27 29 -25 -2 -26 -2 -5 -6z"/>
<path d="M2478 1313 c6 -2 12 -13 12 -24 0 -18 7 -19 98 -17 l97 2 -92 3 c-71
3 -93 7 -93 18 0 10 20 14 86 14 48 0 89 3 92 6 3 3 -44 5 -104 4 -60 0 -103
-3 -96 -6z"/>
<path d="M1825 1300 c-3 -5 -1 -10 4 -10 6 0 11 5 11 10 0 6 -2 10 -4 10 -3 0
-8 -4 -11 -10z"/>
<path d="M1850 1300 c0 -5 5 -10 10 -10 6 0 10 5 10 10 0 6 -4 10 -10 10 -5 0
-10 -4 -10 -10z"/>
<path d="M1363 1273 c9 -2 25 -2 35 0 9 3 1 5 -18 5 -19 0 -27 -2 -17 -5z"/>
<path d="M2194 1010 c0 -146 2 -205 3 -132 2 72 2 192 0 265 -1 72 -3 13 -3
-133z"/>
<path d="M2262 1238 c4 -46 28 -49 28 -4 0 26 -4 36 -16 36 -11 0 -14 -8 -12
-32z"/>
<path d="M2045 1251 c-3 -5 -1 -12 5 -16 5 -3 10 1 10 9 0 18 -6 21 -15 7z"/>
<path d="M2071 1244 c0 -11 3 -14 6 -6 3 7 2 16 -1 19 -3 4 -6 -2 -5 -13z"/>
<path d="M2468 1229 c-28 -30 -21 -43 7 -15 14 14 25 28 25 31 0 10 -15 3 -32
-16z"/>
<path d="M2510 1240 c0 -5 9 -10 20 -10 11 0 20 5 20 10 0 6 -9 10 -20 10 -11
0 -20 -4 -20 -10z"/>
<path d="M2590 1239 c0 -5 5 -7 10 -4 6 3 10 8 10 11 0 2 -4 4 -10 4 -5 0 -10
-5 -10 -11z"/>
<path d="M2680 1240 c0 -5 11 -10 25 -10 14 0 25 5 25 10 0 6 -11 10 -25 10
-14 0 -25 -4 -25 -10z"/>
<path d="M2765 1240 c3 -5 8 -10 11 -10 2 0 4 5 4 10 0 6 -5 10 -11 10 -5 0
-7 -4 -4 -10z"/>
<path d="M2840 1240 c0 -5 9 -10 20 -10 11 0 20 5 20 10 0 6 -9 10 -20 10 -11
0 -20 -4 -20 -10z"/>
<path d="M2310 1230 c0 -5 5 -10 10 -10 6 0 10 5 10 10 0 6 -4 10 -10 10 -5 0
-10 -4 -10 -10z"/>
<path d="M1436 1202 c-9 -15 8 -23 43 -20 29 2 45 18 19 18 -7 0 -23 3 -34 6
-12 3 -25 1 -28 -4z"/>
<path d="M1527 1204 c-4 -4 -7 -12 -7 -18 0 -6 5 -4 10 4 6 10 10 11 10 3 0
-15 46 -17 55 -3 3 6 -3 10 -14 10 -10 0 -26 2 -33 5 -8 3 -17 2 -21 -1z"/>
<path d="M1620 1193 c0 -15 2 -16 10 -3 6 10 10 11 10 3 0 -16 36 -17 46 -1 5
8 0 9 -14 6 -12 -4 -25 -2 -28 3 -9 15 -24 10 -24 -8z"/>
<path d="M2215 1191 c-3 -5 -1 -12 5 -16 5 -3 10 1 10 9 0 18 -6 21 -15 7z"/>
<path d="M2240 1184 c0 -8 5 -12 10 -9 6 4 8 11 5 16 -9 14 -15 11 -15 -7z"/>
<path d="M2472 1175 c0 -16 2 -22 5 -12 2 9 2 23 0 30 -3 6 -5 -1 -5 -18z"/>
<path d="M2571 1184 c0 -11 3 -14 6 -6 3 7 2 16 -1 19 -3 4 -6 -2 -5 -13z"/>
<path d="M2590 1185 c0 -8 9 -13 20 -12 11 1 20 6 20 12 0 6 -9 11 -20 12 -11
1 -20 -4 -20 -12z"/>
<path d="M2738 1188 c15 -15 50 -17 56 -3 4 11 -4 14 -30 13 -19 -1 -31 -5
-26 -10z"/>
<path d="M1845 1180 c-4 -6 5 -10 19 -10 14 0 26 5 26 10 0 6 -9 10 -19 10
-11 0 -23 -4 -26 -10z"/>
<path d="M2300 1169 c0 -5 9 -9 20 -9 11 0 20 4 20 8 0 4 -9 8 -20 9 -11 1
-20 -2 -20 -8z"/>
<path d="M1468 1163 c6 -2 9 -9 6 -15 -4 -6 2 -8 15 -3 17 5 24 2 28 -13 5
-22 47 -33 79 -22 11 4 31 4 47 -1 20 -6 27 -4 27 6 0 10 -17 13 -70 11 -38
-1 -70 1 -70 4 0 10 20 35 20 25 0 -14 98 -14 104 0 2 7 -19 11 -60 11 -49 1
-64 -2 -64 -13 0 -8 -5 -11 -10 -8 -6 4 -8 9 -6 13 2 4 -10 8 -27 9 -18 0 -26
-1 -19 -4z"/>
<path d="M2070 1161 c0 -6 -7 -8 -15 -5 -8 4 -15 1 -15 -5 0 -13 36 -15 45 -2
3 5 1 12 -5 16 -5 3 -10 2 -10 -4z"/>
<path d="M2390 1161 c0 -5 5 -13 10 -16 6 -3 10 -2 10 4 0 5 -4 13 -10 16 -5
3 -10 2 -10 -4z"/>
<path d="M2421 1154 c0 -11 3 -14 6 -6 3 7 2 16 -1 19 -3 4 -6 -2 -5 -13z"/>
<path d="M2440 1156 c0 -9 5 -16 10 -16 6 0 10 4 10 9 0 6 -4 13 -10 16 -5 3
-10 -1 -10 -9z"/>
<path d="M1395 1129 c-4 -6 -4 -13 0 -17 4 -4 10 -1 12 5 3 10 8 9 20 -2 9
-10 20 -12 27 -7 13 10 27 10 44 -1 8 -5 12 -3 12 7 0 12 -9 15 -40 13 -22 -2
-40 0 -40 5 0 12 -28 10 -35 -3z"/>
<path d="M1698 1133 c-10 -3 -18 -9 -18 -15 0 -6 3 -8 6 -5 4 3 15 2 25 -4 15
-7 19 -6 19 5 0 18 -10 24 -32 19z"/>
<path d="M2472 1087 l1 -52 7 50 c4 28 8 45 8 39 2 -13 51 -12 55 1 1 4 -15
10 -35 11 l-38 4 2 -53z"/>
<path d="M2661 1124 c0 -11 3 -14 6 -6 3 7 2 16 -1 19 -3 4 -6 -2 -5 -13z"/>
<path d="M2680 1125 c0 -8 7 -11 20 -8 11 3 20 8 20 12 0 4 -9 7 -20 8 -11 1
-20 -4 -20 -12z"/>
<path d="M2827 1124 c6 -15 65 -15 60 0 -2 6 -17 11 -34 11 -20 0 -29 -3 -26
-11z"/>
<path d="M2310 1120 c0 -5 5 -10 10 -10 6 0 10 5 10 10 0 6 -4 10 -10 10 -5 0
-10 -4 -10 -10z"/>
<path d="M1058 1108 c9 -9 15 -9 24 0 9 9 7 12 -12 12 -19 0 -21 -3 -12 -12z"/>
<path d="M2348 1043 c6 -94 17 -98 17 -7 1 47 -3 74 -10 74 -7 0 -10 -23 -7
-67z"/>
<path d="M2715 1100 c-3 -5 3 -10 14 -10 12 0 21 5 21 10 0 6 -6 10 -14 10 -8
0 -18 -4 -21 -10z"/>
<path d="M1065 1090 c-19 -8 -19 -9 3 -9 12 -1 22 4 22 9 0 6 -1 10 -2 9 -2 0
-12 -4 -23 -9z"/>
<path d="M2275 735 c0 -203 1 -285 2 -182 2 104 2 270 0 370 -1 100 -2 16 -2
-188z"/>
<path d="M2215 1081 c-3 -5 -1 -12 5 -16 5 -3 10 1 10 9 0 18 -6 21 -15 7z"/>
<path d="M2240 1075 c0 -8 2 -15 4 -15 2 0 6 7 10 15 3 8 1 15 -4 15 -6 0 -10
-7 -10 -15z"/>
<path d="M70 1071 c0 -4 24 -17 53 -29 39 -15 52 -24 50 -38 -1 -11 -3 -55 -4
-99 l-2 -80 69 -26 69 -26 3 43 c4 55 17 56 83 9 77 -55 80 -52 78 65 -2 75
-6 100 -16 100 -7 0 -13 7 -13 16 0 13 -8 15 -40 12 -39 -3 -40 -3 -40 29 l0
33 -145 0 c-80 0 -145 -4 -145 -9z m272 -38 c9 -20 22 -29 43 -31 52 -6 65
-27 65 -103 0 -37 -4 -70 -9 -73 -5 -4 -31 8 -58 24 -60 37 -83 33 -83 -16 0
-26 -4 -34 -18 -34 -10 0 -22 3 -26 7 -4 4 -21 12 -39 18 l-31 10 2 95 c2 88
1 96 -20 112 -22 17 -20 18 69 18 91 0 92 0 105 -27z"/>
<path d="M289 956 c10 -11 8 -15 -6 -19 -11 -3 -7 -5 11 -6 22 -1 27 3 22 15
-3 9 -6 18 -6 20 0 2 -7 4 -16 4 -13 0 -14 -3 -5 -14z"/>
<path d="M330 960 c0 -5 6 -10 13 -10 8 0 7 -4 -3 -11 -13 -8 -12 -10 4 -7 26
4 30 38 5 38 -10 0 -19 -4 -19 -10z"/>
<path d="M1844 1069 c-3 -5 2 -9 10 -9 9 0 18 0 21 0 3 0 6 3 8 7 3 10 -32 12
-39 2z"/>
<path d="M2400 1070 c0 -5 5 -10 10 -10 6 0 10 5 10 10 0 6 -4 10 -10 10 -5 0
-10 -4 -10 -10z"/>
<path d="M2035 1060 c-4 -6 5 -10 19 -10 14 0 26 5 26 10 0 6 -9 10 -19 10
-11 0 -23 -4 -26 -10z"/>
<path d="M2300 1060 c0 -5 9 -10 20 -10 11 0 20 5 20 10 0 6 -9 10 -20 10 -11
0 -20 -4 -20 -10z"/>
<path d="M2570 1060 c0 -5 14 -10 30 -10 17 0 30 5 30 10 0 6 -13 10 -30 10
-16 0 -30 -4 -30 -10z"/>
<path d="M2760 1061 c0 -5 9 -11 20 -14 12 -3 20 0 20 7 0 6 -9 12 -20 13 -11
1 -20 -2 -20 -6z"/>
<path d="M2405 1030 c3 -5 8 -10 11 -10 2 0 4 5 4 10 0 6 -5 10 -11 10 -5 0
-7 -4 -4 -10z"/>
<path d="M2450 1030 c0 -5 5 -10 11 -10 5 0 7 5 4 10 -3 6 -8 10 -11 10 -2 0
-4 -4 -4 -10z"/>
<path d="M1090 1010 c0 -19 3 -21 12 -12 9 9 9 15 0 24 -9 9 -12 7 -12 -12z"/>
<path d="M1135 1020 c-3 -5 -2 -10 4 -10 5 0 13 5 16 10 3 6 2 10 -4 10 -5 0
-13 -4 -16 -10z"/>
<path d="M2493 1007 c5 -16 47 -19 47 -3 0 8 -11 14 -25 14 -14 0 -24 -5 -22
-11z"/>
<path d="M2670 1007 c0 -17 42 -15 48 1 2 7 -7 12 -22 12 -15 0 -26 -6 -26
-13z"/>
<path d="M2830 1008 c0 -4 14 -8 30 -8 17 0 30 5 30 10 0 6 -13 9 -30 8 -16
-1 -30 -6 -30 -10z"/>
<path d="M2472 985 c0 -16 2 -22 5 -12 2 9 2 23 0 30 -3 6 -5 -1 -5 -18z"/>
<path d="M2215 971 c-3 -5 -1 -12 5 -16 5 -3 10 1 10 9 0 18 -6 21 -15 7z"/>
<path d="M2240 964 c0 -8 5 -12 10 -9 6 4 8 11 5 16 -9 14 -15 11 -15 -7z"/>
<path d="M2400 970 c0 -5 5 -10 10 -10 6 0 10 5 10 10 0 6 -4 10 -10 10 -5 0
-10 -4 -10 -10z"/>
<path d="M1504 959 c-10 -17 14 -35 28 -21 14 14 32 16 23 3 -3 -6 4 -9 15 -8
11 1 20 8 21 17 0 11 3 9 8 -4 7 -18 8 -18 14 -2 8 20 -21 35 -33 16 -6 -10
-9 -9 -12 1 -4 11 -10 10 -28 -6 -20 -17 -23 -18 -17 -2 7 19 -8 24 -19 6z"/>
<path d="M1846 961 c-3 -5 3 -11 14 -14 21 -5 32 1 24 14 -7 12 -31 11 -38 0z"/>
<path d="M2305 950 c3 -5 8 -10 11 -10 2 0 4 5 4 10 0 6 -5 10 -11 10 -5 0 -7
-4 -4 -10z"/>
<path d="M2584 949 c-2 -4 -1 -9 3 -11 15 -8 36 -3 40 9 5 13 -35 14 -43 2z"/>
<path d="M2710 940 c0 -5 9 -10 20 -10 11 0 20 5 20 10 0 6 -9 10 -20 10 -11
0 -20 -4 -20 -10z"/>
<path d="M2760 940 c0 -5 9 -10 20 -10 11 0 20 5 20 10 0 6 -9 10 -20 10 -11
0 -20 -4 -20 -10z"/>
<path d="M2398 933 c12 -2 30 -2 40 0 9 3 -1 5 -23 4 -22 0 -30 -2 -17 -4z"/>
<path d="M2487 923 c-4 -3 -7 -13 -7 -22 0 -12 2 -12 13 2 11 16 16 16 70 0
106 -30 148 -101 96 -167 -26 -33 -48 -45 -124 -68 -45 -14 -50 -17 -20 -12
58 8 133 43 155 72 12 15 20 40 20 63 0 57 -37 94 -117 119 -72 22 -77 23 -86
13z"/>
<path d="M2390 910 c0 -5 5 -10 10 -10 6 0 10 5 10 10 0 6 -4 10 -10 10 -5 0
-10 -4 -10 -10z"/>
<path d="M2450 910 c0 -5 5 -10 10 -10 6 0 10 5 10 10 0 6 -4 10 -10 10 -5 0
-10 -4 -10 -10z"/>
<path d="M2040 900 c0 -5 11 -10 25 -10 14 0 25 5 25 10 0 6 -11 10 -25 10
-14 0 -25 -4 -25 -10z"/>
<path d="M2830 881 c0 -6 9 -9 20 -8 11 1 20 5 20 9 0 4 -9 8 -20 8 -11 0 -20
-4 -20 -9z"/>
<path d="M2210 855 c0 -9 7 -14 18 -12 26 4 30 20 5 23 -15 3 -23 -1 -23 -11z"/>
<path d="M2383 856 c0 -7 7 -12 16 -11 25 2 28 18 5 21 -12 2 -21 -2 -21 -10z"/>
<path d="M1840 845 c0 -8 5 -15 10 -15 6 0 10 7 10 15 0 8 -4 15 -10 15 -5 0
-10 -7 -10 -15z"/>
<path d="M1870 845 c0 -8 5 -15 10 -15 6 0 10 7 10 15 0 8 -4 15 -10 15 -5 0
-10 -7 -10 -15z"/>
<path d="M2465 850 c3 -5 8 -10 11 -10 2 0 4 5 4 10 0 6 -5 10 -11 10 -5 0 -7
-4 -4 -10z"/>
<path d="M2300 838 c0 -3 9 -6 20 -5 11 1 20 5 20 9 0 3 -9 6 -20 5 -11 -1
-20 -5 -20 -9z"/>
<path d="M2541 824 c0 -11 3 -14 6 -6 3 7 2 16 -1 19 -3 4 -6 -2 -5 -13z"/>
<path d="M2561 824 c0 -11 3 -14 6 -6 3 7 2 16 -1 19 -3 4 -6 -2 -5 -13z"/>
<path d="M2583 825 c0 -8 4 -12 9 -9 4 3 8 9 8 15 0 5 -4 9 -8 9 -5 0 -9 -7
-9 -15z"/>
<path d="M2055 820 c-3 -5 -1 -10 4 -10 6 0 11 5 11 10 0 6 -2 10 -4 10 -3 0
-8 -4 -11 -10z"/>
<path d="M2750 815 c0 -6 9 -11 20 -11 11 0 20 5 20 11 0 6 -9 11 -20 11 -11
0 -20 -5 -20 -11z"/>
<path d="M2450 795 c0 -8 5 -15 10 -15 6 0 10 6 10 13 0 8 4 7 10 -3 8 -13 10
-12 10 3 0 10 -8 17 -20 17 -11 0 -20 -7 -20 -15z"/>
<path d="M2600 800 c0 -6 12 -10 27 -10 29 0 24 12 -7 17 -11 2 -20 -2 -20 -7z"/>
<path d="M2526 772 c-13 -12 -4 -22 20 -22 15 0 24 5 22 12 -4 12 -33 20 -42
10z"/>
<path d="M1113 763 c18 -5 18 -5 0 -18 -20 -15 -12 -31 12 -22 8 4 15 16 15
27 0 14 -6 20 -22 19 -19 -1 -19 -2 -5 -6z"/>
<path d="M1168 745 c2 -14 6 -25 8 -25 2 0 4 11 4 25 0 14 -4 25 -9 25 -4 0
-6 -11 -3 -25z"/>
<path d="M2861 754 c0 -11 3 -14 6 -6 3 7 2 16 -1 19 -3 4 -6 -2 -5 -13z"/>
<path d="M1846 752 c-13 -12 -5 -19 19 -19 14 0 24 4 22 10 -4 12 -33 18 -41
9z"/>
<path d="M2046 751 c-4 -7 -5 -15 -2 -18 9 -9 19 4 14 18 -4 11 -6 11 -12 0z"/>
<path d="M2070 744 c0 -8 5 -12 10 -9 6 3 10 10 10 16 0 5 -4 9 -10 9 -5 0
-10 -7 -10 -16z"/>
<path d="M2210 744 c0 -7 8 -10 20 -7 11 3 20 9 20 14 0 4 -9 7 -20 6 -11 -1
-20 -7 -20 -13z"/>
<path d="M2830 750 c0 -5 5 -10 10 -10 6 0 10 5 10 10 0 6 -4 10 -10 10 -5 0
-10 -4 -10 -10z"/>
<path d="M2294 739 c-3 -5 -4 -9 -2 -10 30 -7 48 -7 48 0 0 12 -39 21 -46 10z"/>
<path d="M2383 735 c0 -11 4 -12 14 -4 9 9 13 8 13 0 0 -7 5 -9 10 -6 18 11
11 25 -13 25 -14 0 -24 -6 -24 -15z"/>
<path d="M2194 555 c0 -104 2 -146 3 -92 2 54 2 139 0 190 -1 51 -3 7 -3 -98z"/>
<path d="M2750 691 c0 -5 9 -11 20 -14 12 -3 20 0 20 7 0 6 -9 12 -20 13 -11
1 -20 -2 -20 -6z"/>
<path d="M2310 680 c0 -5 5 -10 10 -10 6 0 10 5 10 10 0 6 -4 10 -10 10 -5 0
-10 -4 -10 -10z"/>
<path d="M2450 680 c0 -5 11 -10 25 -10 14 0 25 5 25 10 0 6 -11 10 -25 10
-14 0 -25 -4 -25 -10z"/>
<path d="M1497 674 c-17 -18 -5 -33 23 -31 18 1 30 8 30 16 0 7 -6 11 -14 8
-7 -3 -18 -1 -23 4 -5 5 -12 6 -16 3z m18 -14 c3 -5 1 -10 -4 -10 -6 0 -11 5
-11 10 0 6 2 10 4 10 3 0 8 -4 11 -10z"/>
<path d="M1565 670 c-3 -5 0 -10 7 -10 9 0 9 -3 -2 -10 -13 -8 -12 -10 3 -10
9 0 17 6 17 14 0 19 -17 29 -25 16z"/>
<path d="M1606 673 c-11 -12 -6 -30 9 -30 8 0 15 6 15 13 0 15 -15 26 -24 17z"/>
<path d="M2055 660 c3 -5 8 -10 11 -10 2 0 4 5 4 10 0 6 -5 10 -11 10 -5 0 -7
-4 -4 -10z"/>
<path d="M2636 662 c-13 -12 -4 -22 20 -22 15 0 24 5 22 12 -4 12 -33 20 -42
10z"/>
<path d="M2210 645 c0 -8 9 -15 20 -15 12 0 20 7 20 18 0 14 -2 15 -10 2 -6
-10 -10 -11 -10 -2 0 6 -4 12 -10 12 -5 0 -10 -7 -10 -15z"/>
<path d="M1840 639 c0 -5 11 -9 25 -9 14 0 25 4 25 9 0 5 -11 9 -25 9 -14 0
-25 -4 -25 -9z"/>
<path d="M2300 630 c0 -5 5 -10 10 -10 6 0 10 5 10 10 0 6 -4 10 -10 10 -5 0
-10 -4 -10 -10z"/>
<path d="M993 623 c26 -2 68 -2 95 0 26 2 4 3 -48 3 -52 0 -74 -1 -47 -3z"/>
<path d="M1158 623 c7 -3 16 -2 19 1 4 3 -2 6 -13 5 -11 0 -14 -3 -6 -6z"/>
<path d="M2478 623 c-25 -6 -23 -22 2 -20 11 1 20 7 20 14 0 7 -1 12 -2 12 -2
-1 -11 -3 -20 -6z"/>
<path d="M2834 608 c-3 -4 -4 -8 -2 -9 27 -6 38 -5 38 5 0 14 -28 17 -36 4z"/>
<path d="M2441 594 c0 -11 3 -14 6 -6 3 7 2 16 -1 19 -3 4 -6 -2 -5 -13z"/>
<path d="M2046 591 c-4 -7 -5 -15 -2 -18 9 -9 19 4 14 18 -4 11 -6 11 -12 0z"/>
<path d="M2071 584 c0 -11 3 -14 6 -6 3 7 2 16 -1 19 -3 4 -6 -2 -5 -13z"/>
<path d="M2210 569 c0 -5 11 -9 25 -9 14 0 25 4 25 9 0 5 -11 9 -25 9 -14 0
-25 -4 -25 -9z"/>
<path d="M2740 550 c0 -5 11 -10 25 -10 14 0 25 5 25 10 0 6 -11 10 -25 10
-14 0 -25 -4 -25 -10z"/>
<path d="M2537 524 c5 -13 7 -13 14 -2 7 10 9 11 9 0 0 -7 5 -10 10 -7 18 11
10 25 -15 25 -18 0 -23 -4 -18 -16z"/>
<path d="M1840 520 c0 -6 12 -10 27 -10 29 0 24 12 -7 17 -11 2 -20 -2 -20 -7z"/>
<path d="M2294 518 c-3 -4 -4 -8 -2 -9 26 -6 37 -5 42 6 5 15 -32 17 -40 3z"/>
<path d="M2385 520 c-4 -6 5 -10 19 -10 14 0 26 5 26 10 0 6 -9 10 -19 10 -11
0 -23 -4 -26 -10z"/>
<path d="M2055 510 c-3 -5 -1 -10 4 -10 6 0 11 5 11 10 0 6 -2 10 -4 10 -3 0
-8 -4 -11 -10z"/>
<path d="M2216 502 c-13 -12 -5 -22 19 -22 14 0 25 4 25 9 0 10 -36 21 -44 13z"/>
<path d="M2830 496 c0 -9 7 -15 18 -13 26 4 30 22 5 25 -16 2 -23 -2 -23 -12z"/>
<path d="M2310 470 c0 -5 5 -10 10 -10 6 0 10 5 10 10 0 6 -4 10 -10 10 -5 0
-10 -4 -10 -10z"/>
<path d="M2467 454 c5 -13 7 -13 14 -2 7 10 9 10 9 1 0 -7 5 -13 10 -13 6 0
10 7 10 15 0 9 -9 15 -25 15 -18 0 -23 -4 -18 -16z"/>
<path d="M2623 456 c0 -8 10 -13 24 -12 30 1 30 21 0 24 -14 1 -24 -4 -24 -12z"/>
<path d="M2740 440 c0 -5 9 -10 20 -10 11 0 20 5 20 10 0 6 -9 10 -20 10 -11
0 -20 -4 -20 -10z"/>
<path d="M2058 432 c-26 -5 -22 -22 5 -18 12 1 21 6 20 10 -2 11 -6 13 -25 8z"/>
<path d="M1840 419 c0 -5 11 -9 25 -9 14 0 25 4 25 9 0 5 -11 9 -25 9 -14 0
-25 -4 -25 -9z"/>
<path d="M995 400 c13 -6 15 -9 5 -9 -13 -1 -13 -3 -1 -10 11 -7 11 -10 -3
-14 -14 -4 -14 -5 1 -3 10 1 19 11 21 24 3 17 -1 22 -20 21 -22 0 -22 -1 -3
-9z"/>
<path d="M1043 403 c18 -5 18 -6 1 -24 -16 -18 -16 -19 2 -19 14 0 20 8 22 25
1 20 -3 25 -21 24 -18 -1 -18 -2 -4 -6z"/>
<path d="M1368 401 c19 -11 17 -24 -5 -32 -16 -7 -16 -8 3 -8 11 -1 23 2 26 5
11 11 -5 44 -21 44 -12 0 -13 -2 -3 -9z"/>
<path d="M1418 402 c8 -5 14 -13 14 -17 0 -4 -6 -12 -14 -17 -9 -7 -8 -8 7 -6
12 2 20 11 20 23 0 12 -8 21 -20 23 -15 2 -16 1 -7 -6z"/>
<path d="M2210 390 c0 -5 5 -10 10 -10 6 0 10 5 10 10 0 6 -4 10 -10 10 -5 0
-10 -4 -10 -10z"/>
<path d="M2393 385 c0 -12 3 -12 16 -2 12 9 13 9 7 0 -4 -7 -2 -13 3 -13 6 0
11 7 11 15 0 8 -8 15 -18 15 -10 0 -19 -7 -19 -15z"/>
<path d="M2543 387 c0 -7 9 -14 19 -14 11 -1 18 5 18 15 0 15 -2 15 -10 2 -6
-10 -10 -11 -10 -2 0 6 -4 12 -8 12 -5 0 -9 -6 -9 -13z"/>
<path d="M2826 385 c-4 -12 -1 -16 16 -13 22 3 38 28 18 28 -6 0 -8 -5 -4 -12
6 -10 4 -10 -8 0 -13 10 -17 10 -22 -3z"/>
<path d="M2224 290 c1 -27 25 -66 27 -45 9 75 9 75 -10 75 -14 0 -18 -7 -17
-30z"/>
<path d="M1747 304 c-13 -13 -7 -34 9 -34 9 0 12 5 8 13 -6 9 -4 9 8 -1 13
-10 17 -10 22 3 3 8 1 15 -3 15 -5 0 -16 2 -23 5 -8 3 -17 2 -21 -1z"/>
<path d="M1880 290 c0 -13 5 -20 13 -17 6 2 12 10 12 17 0 7 -6 15 -12 18 -8
2 -13 -5 -13 -18z"/>
<path d="M2000 301 c0 -5 -11 -8 -25 -6 -16 1 -25 -3 -25 -12 0 -9 10 -13 30
-11 17 1 30 7 30 13 0 5 5 3 10 -5 8 -13 10 -13 10 1 0 9 -7 19 -15 23 -8 3
-15 1 -15 -3z"/>
<path d="M2050 292 c0 -10 7 -19 15 -19 17 0 17 0 9 21 -8 22 -24 20 -24 -2z"/>
<path d="M2083 296 c2 -6 15 -13 30 -17 15 -4 25 -3 22 1 -3 5 -1 11 4 14 5 4
11 -2 13 -11 3 -15 5 -14 10 4 5 20 2 21 -38 20 -24 -1 -43 -6 -41 -11z"/>
<path d="M1807 294 c-4 -4 -7 -11 -7 -16 0 -12 50 -4 53 8 2 11 -36 18 -46 8z"/>
<path d="M1920 285 c0 -8 5 -15 10 -15 6 0 10 7 10 15 0 8 -4 15 -10 15 -5 0
-10 -7 -10 -15z"/>
</g>
</svg>
