<?xml version="1.0" standalone="no"?>
<!DOCTYPE svg PUBLIC "-//W3C//DTD SVG 20010904//EN"
 "http://www.w3.org/TR/2001/REC-SVG-20010904/DTD/svg10.dtd">
<svg version="1.0" xmlns="http://www.w3.org/2000/svg"
 width="1205.000000pt" height="1106.000000pt" viewBox="0 0 1205.000000 1106.000000"
 preserveAspectRatio="xMidYMid meet">
<metadata>
Created by potrace 1.14, written by Peter Selinger 2001-2017
</metadata>
<g transform="translate(0.000000,1106.000000) scale(0.100000,-0.100000)"
fill="#000000" stroke="none">
<path d="M6535 10769 c-4 -13 -23 -45 -41 -72 -40 -55 -40 -57 -14 -57 11 0
20 -1 20 -3 0 -9 -22 -124 -26 -139 -5 -16 3 -18 67 -18 l72 0 -6 43 c-4 23
-10 59 -13 80 -6 33 -4 37 15 37 27 0 27 6 -6 44 -14 17 -34 48 -43 70 -17 37
-18 37 -25 15z"/>
<path d="M6880 10285 l0 -255 -562 2 -563 3 -3 39 -3 39 -132 -6 c-426 -20
-925 -243 -1339 -599 -37 -32 -126 -130 -198 -217 l-130 -159 0 -91 c0 -87 2
-96 40 -170 l39 -79 97 -52 96 -52 34 -77 35 -77 103 -51 c102 -51 105 -53
149 -125 l46 -73 96 -39 c92 -37 97 -41 146 -108 56 -76 66 -82 188 -124 78
-27 87 -33 143 -99 l61 -70 111 -32 c108 -32 112 -34 181 -101 l70 -69 110
-28 c102 -26 115 -32 180 -85 90 -73 89 -73 290 -141 l170 -58 -3 -43 c-3 -48
-26 -373 -42 -575 -10 -133 -21 -285 -40 -528 -5 -71 -12 -166 -16 -211 l-6
-81 -456 -6 c-250 -4 -456 -8 -457 -9 -5 -6 -15 -1365 -16 -2208 -2 -644 1
-915 9 -918 12 -4 16 252 21 1233 2 319 6 873 10 1230 l6 650 370 6 c204 3
409 7 458 8 l87 1 0 46 c0 70 38 556 52 662 10 78 14 92 30 92 13 0 18 -8 18
-30 0 -20 5 -30 15 -30 10 0 15 10 15 30 0 23 4 30 20 30 16 0 20 -7 20 -30 0
-20 5 -30 15 -30 10 0 15 10 15 34 0 40 -10 45 -87 42 l-53 -1 0 36 0 37 39
-5 c59 -8 81 9 81 62 0 33 -4 45 -14 45 -10 0 -16 -14 -18 -42 -3 -40 -5 -43
-33 -43 -29 0 -30 2 -37 60 -6 51 13 399 26 476 3 16 0 26 -8 26 -15 0 -216
66 -313 103 -47 18 -97 49 -146 89 -70 57 -81 62 -183 87 l-109 27 -71 69
c-70 67 -75 70 -175 99 l-104 29 -70 74 c-50 53 -83 78 -115 89 -158 56 -155
54 -213 130 -52 70 -58 75 -146 111 -104 43 -98 39 -151 123 -37 59 -45 65
-139 113 l-101 50 -40 79 -39 79 -96 52 -95 51 -35 76 c-32 69 -35 84 -35 164
l0 89 102 127 c118 147 191 222 309 317 378 303 882 514 1244 520 l90 1 3 -37
3 -38 580 0 c318 0 582 1 587 3 7 2 11 96 12 345 l0 152 787 0 786 0 151 -81
151 -82 845 -8 c465 -4 923 -8 1018 -8 l172 -1 0 -2472 c0 -1359 3 -2538 6
-2620 l7 -148 399 0 c310 0 400 -3 403 -12 2 -7 8 -548 14 -1203 6 -655 14
-1490 17 -1857 l7 -668 -1092 0 c-1084 0 -1091 0 -1091 20 0 17 -7 20 -40 20
-33 0 -40 -3 -40 -20 0 -20 -7 -20 -776 -20 -758 0 -776 0 -781 19 -3 11 -11
22 -18 25 -23 9 -55 -6 -55 -25 0 -18 -23 -19 -787 -19 -432 0 -784 -2 -781
-5 5 -6 5479 -7 5485 -2 4 4 -14 2125 -22 2552 -3 165 -5 497 -5 738 -1 241
-3 444 -6 452 -5 13 -63 15 -410 15 l-404 0 0 470 0 470 24 0 c14 0 28 5 31
10 4 6 -7 10 -24 10 -17 0 -31 5 -31 10 0 6 16 10 35 10 32 0 35 2 26 19 -6
10 -22 22 -36 25 l-25 6 -2 2108 -3 2107 -30 1 c-16 1 -477 4 -1024 8 l-993 8
-156 84 -156 84 -803 0 -803 0 0 -255z"/>
<path d="M971 10185 c-53 -17 -87 -47 -102 -92 -23 -71 26 -118 183 -174 106
-38 152 -75 139 -111 -18 -49 -101 -63 -160 -27 -18 11 -35 29 -38 40 -5 18
-11 19 -67 13 -33 -3 -65 -10 -69 -14 -24 -21 62 -103 125 -121 55 -15 180
-15 236 0 24 7 60 27 79 45 31 28 36 39 37 79 1 35 -4 51 -24 72 -28 30 -110
74 -185 99 -76 25 -115 52 -115 80 0 64 110 74 167 16 29 -30 29 -30 91 -19
l63 11 -17 26 c-27 41 -54 60 -108 77 -61 18 -176 18 -235 0z"/>
<path d="M1905 10195 c-5 -2 -22 -6 -37 -9 -42 -9 -96 -62 -104 -101 -13 -69
47 -119 216 -179 25 -9 60 -25 78 -36 28 -17 33 -25 30 -52 -4 -43 -37 -60
-103 -55 -42 4 -54 10 -81 41 l-32 37 -62 -10 c-35 -6 -64 -12 -66 -14 -2 -2
8 -19 21 -39 15 -23 46 -47 81 -64 48 -23 68 -27 143 -27 47 0 104 6 126 13
97 31 141 101 107 169 -23 47 -52 66 -177 116 -103 41 -145 65 -145 84 0 5 9
19 19 32 16 20 28 24 70 23 44 0 56 -5 84 -32 32 -32 34 -32 86 -22 30 5 55
10 57 10 2 0 4 6 4 13 0 24 -67 78 -115 93 -42 12 -172 18 -200 9z"/>
<path d="M3471 10176 c-19 -14 -48 -28 -65 -31 -60 -12 -66 -16 -66 -40 0 -22
4 -24 58 -27 49 -3 57 -6 58 -23 1 -11 2 -98 3 -192 l1 -173 59 0 c55 0 59 2
64 26 6 36 7 452 0 470 -9 23 -75 17 -112 -10z"/>
<path d="M1480 9940 l0 -250 70 0 70 0 0 250 0 250 -70 0 -70 0 0 -250z"/>
<path d="M2670 9939 l0 -251 163 5 c183 5 227 15 274 62 28 28 33 40 33 80 0
39 -5 52 -31 75 -16 16 -39 32 -50 35 -19 6 -27 25 -10 25 5 0 23 13 40 29 66
62 29 154 -73 180 -25 6 -113 11 -195 11 l-151 0 0 -251z m290 156 c51 -46 7
-97 -88 -99 l-57 -1 -3 49 c-5 75 -1 79 68 74 39 -3 66 -11 80 -23z m-11 -193
c43 -21 56 -42 47 -75 -9 -39 -45 -57 -117 -60 l-64 -2 -3 64 c-2 35 -1 70 2
77 8 20 94 18 135 -4z"/>
<path d="M9070 8752 c-6 -2 -10 -44 -10 -103 l0 -99 160 0 160 0 0 100 0 100
-32 1 c-127 3 -269 3 -278 1z"/>
<path d="M7230 8205 l0 -96 148 3 147 3 3 93 3 92 -151 0 -150 0 0 -95z"/>
<path d="M3340 7985 l0 -95 150 0 150 0 0 95 0 95 -150 0 -150 0 0 -95z"/>
<path d="M9617 7914 c-4 -4 -7 -67 -7 -141 l0 -133 210 0 210 0 0 87 c0 68 -3
84 -12 75 -7 -7 -29 -12 -51 -12 -31 0 -56 -12 -126 -60 -81 -56 -92 -60 -143
-60 -59 0 -83 15 -72 44 8 21 36 36 65 36 12 0 41 12 65 28 39 24 44 31 44 65
0 24 5 40 15 43 21 8 45 -14 38 -34 -6 -14 -4 -14 17 1 31 22 108 22 138 1 23
-16 23 -16 20 22 l-3 39 -201 3 c-110 1 -203 -1 -207 -4z"/>
<path d="M9810 7793 c-47 -31 -101 -59 -120 -63 -26 -4 -35 -10 -35 -25 0 -16
8 -21 40 -23 35 -3 51 5 129 58 52 36 99 60 115 60 40 0 71 11 71 25 0 17 -23
25 -73 25 -35 0 -58 -10 -127 -57z"/>
<path d="M3630 7102 c-6 -2 -10 -52 -10 -123 l0 -119 190 0 190 0 0 123 0 123
-180 0 c-99 -1 -184 -2 -190 -4z"/>
<path d="M10050 5710 l0 -120 190 0 190 0 0 120 0 120 -190 0 -190 0 0 -120z"/>
<path d="M5700 5310 l0 -120 190 0 190 0 0 120 0 120 -190 0 -190 0 0 -120z"/>
<path d="M7780 4980 l0 -130 35 0 35 0 0 130 0 130 -35 0 -35 0 0 -130z"/>
<path d="M9100 4979 l0 -130 38 3 37 3 3 128 3 127 -41 0 -40 0 0 -131z"/>
<path d="M4453 4500 c-46 -18 -57 -89 -22 -134 16 -21 29 -26 63 -26 53 0 83
21 92 64 14 77 -55 127 -133 96z"/>
<path d="M3630 3424 c-33 -31 -57 -61 -54 -65 3 -5 30 -9 60 -9 47 0 54 -2 54
-20 0 -13 7 -20 20 -20 13 0 20 7 20 20 0 11 7 20 15 20 19 0 19 17 1 27 -8 5
-16 27 -18 53 -4 65 -25 63 -98 -6z"/>
<path d="M8930 1263 c0 -5 6 -41 14 -80 7 -40 12 -74 10 -74 -9 -3 -25 -7 -35
-8 -6 0 6 -20 26 -43 19 -23 38 -53 41 -65 7 -25 24 -32 24 -10 0 8 13 33 30
55 34 48 40 66 23 67 -7 0 -14 2 -15 5 -2 7 12 110 19 138 5 21 3 22 -66 22
-39 0 -71 -3 -71 -7z"/>
</g>
</svg>
